<svg id="svg" version="1.1" xmlns="http://www.w3.org/2000/svg" xmlns:xlink="http://www.w3.org/1999/xlink" width="18" height="18" viewBox="0, 0, 400,400"><g id="svgg"><path id="path0" d="M158.761 0.553 C 159.116 0.981,159.078 1.161,158.595 1.347 C 158.234 1.485,157.874 1.336,157.742 0.993 C 157.489 0.334,155.200 0.160,155.200 0.800 C 155.200 1.020,154.828 1.200,154.373 1.200 C 153.728 1.200,153.602 1.376,153.800 2.000 C 153.946 2.459,153.872 2.800,153.627 2.800 C 153.392 2.800,153.200 2.620,153.200 2.400 C 153.200 1.826,152.310 1.907,150.904 2.608 C 149.413 3.352,148.644 4.225,148.989 4.782 C 149.131 5.012,149.072 5.200,148.857 5.200 C 148.642 5.200,148.402 5.007,148.324 4.772 C 148.145 4.235,144.975 5.839,143.645 7.140 C 142.906 7.863,142.804 8.156,143.206 8.404 C 143.620 8.660,143.580 8.877,143.012 9.445 C 142.322 10.135,142.305 10.129,142.574 9.281 C 142.743 8.749,142.685 8.400,142.427 8.400 C 142.192 8.400,142.000 8.550,142.000 8.732 C 142.000 8.915,141.505 9.320,140.900 9.632 C 139.595 10.306,138.000 11.803,138.000 12.355 C 138.000 12.571,137.177 13.546,136.172 14.523 C 133.992 16.643,131.328 21.580,132.100 22.070 C 132.494 22.320,132.495 22.389,132.105 22.394 C 131.314 22.404,130.000 23.712,130.000 24.489 C 130.000 24.880,130.180 25.200,130.400 25.200 C 130.620 25.200,130.797 25.515,130.794 25.900 C 130.789 26.454,130.715 26.485,130.439 26.049 C 130.035 25.411,129.200 25.785,129.200 26.604 C 129.200 26.910,129.493 27.324,129.851 27.525 C 130.297 27.774,130.360 27.978,130.051 28.168 C 129.803 28.322,129.600 28.235,129.600 27.975 C 129.600 27.622,129.447 27.629,129.000 28.000 C 128.670 28.274,128.400 28.926,128.400 29.449 C 128.400 30.028,128.635 30.400,129.000 30.400 C 129.330 30.400,129.600 30.601,129.600 30.847 C 129.600 31.092,129.256 31.203,128.835 31.093 C 128.295 30.952,128.001 31.145,127.840 31.746 C 127.464 33.147,127.568 34.006,128.100 33.900 C 128.386 33.843,128.656 34.295,128.732 34.955 C 128.845 35.943,128.747 36.080,128.058 35.899 C 126.777 35.564,126.791 35.199,126.800 70.344 C 126.805 88.745,126.803 124.950,126.797 150.800 L 126.785 197.800 124.492 195.316 C 123.232 193.950,121.034 191.565,119.609 190.016 C 118.184 188.467,116.895 186.885,116.745 186.500 C 116.595 186.115,115.286 184.635,113.836 183.212 C 112.386 181.788,111.200 180.460,111.200 180.260 C 111.200 180.060,109.985 178.698,108.500 177.234 C 107.015 175.770,105.750 174.339,105.689 174.054 C 105.629 173.770,104.484 172.398,103.145 171.005 C 101.806 169.613,100.502 168.056,100.247 167.545 C 99.993 167.034,99.381 166.415,98.888 166.169 C 98.395 165.923,97.146 164.929,96.113 163.961 C 95.080 162.992,93.512 161.876,92.629 161.480 C 91.745 161.084,90.927 160.615,90.811 160.438 C 89.995 159.197,84.287 157.212,83.800 158.000 C 83.392 158.660,82.756 158.452,82.882 157.700 C 82.961 157.233,82.701 156.958,82.100 156.872 C 81.605 156.802,81.200 156.937,81.200 157.172 C 81.200 157.407,80.894 157.600,80.520 157.600 C 79.991 157.600,79.947 157.493,80.320 157.120 C 81.066 156.374,80.892 156.000,79.800 156.000 C 79.250 156.000,78.800 156.180,78.800 156.400 C 78.800 156.620,78.428 156.800,77.973 156.800 C 77.328 156.800,77.202 156.624,77.400 156.000 C 77.625 155.291,77.472 155.200,76.060 155.200 C 75.184 155.200,74.397 155.408,74.313 155.661 C 74.099 156.303,65.501 156.304,65.287 155.662 C 65.201 155.404,64.340 155.200,63.340 155.200 C 61.728 155.200,61.572 155.281,61.800 156.000 C 61.980 156.568,61.872 156.800,61.427 156.800 C 61.082 156.800,60.800 156.620,60.800 156.400 C 60.800 156.180,60.260 156.000,59.600 156.000 C 58.940 156.000,58.400 156.180,58.400 156.400 C 58.400 156.620,58.580 156.800,58.800 156.800 C 59.020 156.800,59.200 156.980,59.200 157.200 C 59.200 157.420,58.930 157.600,58.600 157.600 C 58.270 157.600,58.000 157.420,58.000 157.200 C 58.000 156.980,57.550 156.800,57.000 156.800 C 55.908 156.800,55.734 157.174,56.480 157.920 C 56.853 158.293,56.809 158.400,56.280 158.400 C 55.906 158.400,55.600 158.220,55.600 158.000 C 55.600 157.780,55.150 157.600,54.600 157.600 C 54.050 157.600,53.621 157.735,53.647 157.900 C 53.823 159.015,53.591 159.291,52.935 158.749 C 52.416 158.321,52.233 158.310,52.102 158.700 C 52.009 158.975,51.588 159.200,51.167 159.200 C 50.745 159.200,50.400 159.352,50.400 159.537 C 50.400 159.722,49.725 160.077,48.900 160.327 C 48.075 160.576,46.680 161.411,45.800 162.182 C 44.920 162.954,43.975 163.588,43.700 163.592 C 43.425 163.597,43.200 163.780,43.200 164.000 C 43.200 164.220,42.919 164.400,42.576 164.400 C 42.233 164.400,42.064 164.580,42.200 164.800 C 42.336 165.020,42.237 165.200,41.980 165.200 C 41.418 165.200,38.010 168.822,38.004 169.425 C 38.002 169.659,37.460 170.368,36.800 171.000 C 36.140 171.632,35.600 172.386,35.600 172.675 C 35.600 172.964,35.447 173.200,35.260 173.200 C 34.288 173.200,32.225 178.470,33.020 178.919 C 33.762 179.337,33.751 179.370,32.802 179.597 C 31.687 179.863,31.161 181.200,32.171 181.200 C 32.517 181.200,32.800 181.401,32.800 181.647 C 32.800 181.892,32.452 182.002,32.026 181.891 C 31.564 181.770,31.160 181.926,31.026 182.277 C 30.659 183.233,30.763 183.600,31.400 183.600 C 31.730 183.600,32.000 183.801,32.000 184.047 C 32.000 184.292,31.652 184.402,31.226 184.291 C 29.972 183.963,29.372 187.274,30.600 187.745 C 31.556 188.112,31.391 190.143,30.426 189.891 C 29.485 189.645,29.200 190.275,29.200 192.600 C 29.200 194.925,29.485 195.555,30.426 195.309 C 31.473 195.035,31.617 199.754,30.573 200.155 C 29.515 200.561,29.985 202.630,31.100 202.475 C 32.136 202.331,32.386 203.477,31.400 203.855 C 30.377 204.248,30.614 206.477,31.663 206.325 C 32.137 206.256,32.602 206.425,32.696 206.700 C 32.790 206.975,32.582 207.200,32.233 207.200 C 31.855 207.200,31.600 207.541,31.600 208.047 C 31.600 208.696,31.786 208.845,32.400 208.684 C 33.424 208.416,33.826 209.034,32.947 209.526 C 32.528 209.760,32.374 210.155,32.535 210.576 C 32.678 210.947,32.976 211.139,33.197 211.002 C 33.990 210.512,34.560 211.294,33.810 211.842 C 32.968 212.458,33.276 213.699,34.185 213.350 C 34.523 213.221,34.800 213.314,34.800 213.557 C 34.800 213.801,34.620 214.000,34.400 214.000 C 33.577 214.000,36.689 221.491,37.696 221.933 C 37.863 222.007,38.000 222.335,38.000 222.662 C 38.000 223.334,38.941 224.400,39.534 224.400 C 39.749 224.400,39.831 224.760,39.716 225.200 C 39.599 225.647,39.704 226.000,39.953 226.000 C 40.199 226.000,40.400 226.360,40.400 226.800 C 40.400 227.240,40.580 227.600,40.800 227.600 C 41.020 227.600,41.200 227.920,41.200 228.312 C 41.200 228.703,41.560 229.283,42.000 229.600 C 42.440 229.917,42.800 230.409,42.800 230.694 C 42.800 231.336,43.603 232.793,44.400 233.596 C 44.730 233.928,45.059 234.470,45.131 234.800 C 45.204 235.130,45.699 235.973,46.231 236.673 C 46.764 237.374,47.200 238.229,47.200 238.573 C 47.200 238.918,47.380 239.200,47.600 239.200 C 47.820 239.200,48.000 239.560,48.000 240.000 C 48.000 240.440,48.180 240.800,48.400 240.800 C 48.620 240.800,48.800 241.120,48.800 241.512 C 48.800 241.903,49.160 242.483,49.600 242.800 C 50.040 243.117,50.400 243.657,50.400 244.000 C 50.400 244.343,50.760 244.883,51.200 245.200 C 51.640 245.517,52.000 246.097,52.000 246.488 C 52.000 246.880,52.180 247.200,52.400 247.200 C 52.620 247.200,52.800 247.494,52.800 247.853 C 52.800 248.212,53.124 248.797,53.520 249.153 C 53.917 249.509,54.543 250.450,54.913 251.245 C 55.283 252.040,55.859 252.917,56.193 253.194 C 56.527 253.471,56.800 253.944,56.800 254.246 C 56.800 254.547,57.160 255.018,57.600 255.293 C 58.040 255.568,58.400 256.109,58.400 256.496 C 58.400 256.883,58.580 257.200,58.800 257.200 C 59.020 257.200,59.200 257.560,59.200 258.000 C 59.200 258.440,59.358 258.800,59.551 258.800 C 59.745 258.800,60.127 259.340,60.400 260.000 C 60.877 261.152,61.600 261.634,61.600 260.800 C 61.600 260.580,61.802 260.400,62.049 260.400 C 62.370 260.400,62.363 260.563,62.025 260.970 C 61.507 261.594,62.852 265.200,63.602 265.200 C 63.813 265.200,64.094 265.637,64.228 266.171 C 64.362 266.704,64.816 267.452,65.236 267.833 C 65.656 268.213,66.000 268.757,66.000 269.042 C 66.000 269.327,66.242 269.704,66.537 269.880 C 66.832 270.056,67.413 270.740,67.828 271.400 C 68.242 272.060,68.706 272.692,68.859 272.804 C 69.011 272.916,69.195 273.276,69.268 273.604 C 69.341 273.932,69.670 274.472,70.000 274.804 C 70.797 275.607,71.600 277.064,71.600 277.706 C 71.600 277.991,71.960 278.483,72.400 278.800 C 72.840 279.117,73.200 279.657,73.200 280.000 C 73.200 280.343,73.560 280.883,74.000 281.200 C 74.440 281.517,74.800 281.979,74.800 282.226 C 74.800 282.474,75.160 283.002,75.600 283.400 C 76.040 283.798,76.400 284.467,76.400 284.886 C 76.400 285.304,76.562 285.547,76.761 285.424 C 76.960 285.301,77.317 285.761,77.556 286.445 C 77.811 287.178,78.197 287.610,78.495 287.496 C 78.814 287.374,79.023 287.684,79.063 288.339 C 79.098 288.909,79.323 289.441,79.563 289.521 C 79.803 289.601,80.000 289.984,80.000 290.371 C 80.000 290.759,80.360 291.402,80.800 291.800 C 81.240 292.198,81.600 292.738,81.600 293.000 C 81.600 293.262,81.960 293.802,82.400 294.200 C 82.840 294.598,83.200 295.138,83.200 295.400 C 83.200 295.662,83.560 296.202,84.000 296.600 C 84.440 296.998,84.800 297.538,84.800 297.800 C 84.800 298.062,85.160 298.602,85.600 299.000 C 86.040 299.398,86.400 299.965,86.400 300.259 C 86.400 300.553,86.760 301.018,87.200 301.293 C 87.640 301.568,88.000 302.121,88.000 302.523 C 88.000 303.089,88.203 303.197,88.900 303.001 C 89.465 302.842,89.614 302.878,89.301 303.097 C 88.774 303.466,89.452 305.590,90.100 305.597 C 90.265 305.599,90.400 305.920,90.400 306.312 C 90.400 306.703,90.760 307.283,91.200 307.600 C 91.640 307.917,92.000 308.497,92.000 308.888 C 92.000 309.280,92.151 309.600,92.336 309.600 C 92.520 309.600,92.880 310.057,93.134 310.615 C 93.388 311.173,93.780 311.848,94.004 312.115 C 94.844 313.115,96.400 315.650,96.400 316.018 C 96.400 316.228,96.584 316.400,96.809 316.400 C 97.033 316.400,97.437 316.895,97.706 317.500 C 97.974 318.105,98.511 318.949,98.897 319.375 C 99.284 319.802,99.600 320.347,99.600 320.587 C 99.600 320.827,99.960 321.283,100.400 321.600 C 100.840 321.917,101.200 322.497,101.200 322.888 C 101.200 323.280,101.380 323.600,101.600 323.600 C 101.820 323.600,102.000 323.920,102.000 324.312 C 102.000 324.703,102.360 325.283,102.800 325.600 C 103.240 325.917,103.600 326.497,103.600 326.888 C 103.600 327.280,103.780 327.600,104.000 327.600 C 104.220 327.600,104.400 327.894,104.400 328.253 C 104.400 328.612,104.749 329.209,105.175 329.578 C 105.601 329.948,106.006 330.487,106.075 330.777 C 106.144 331.066,106.615 331.731,107.122 332.255 C 107.628 332.778,107.933 333.385,107.798 333.603 C 107.663 333.822,107.743 334.000,107.976 334.000 C 108.209 334.000,108.400 334.276,108.400 334.613 C 108.400 334.949,108.654 335.322,108.964 335.441 C 109.274 335.561,109.630 336.065,109.755 336.562 C 109.880 337.060,110.751 338.639,111.691 340.071 C 112.631 341.502,113.625 343.017,113.901 343.437 C 114.176 343.857,114.581 344.650,114.801 345.200 C 115.478 346.899,115.844 347.382,116.839 347.894 C 117.368 348.166,117.575 348.391,117.300 348.394 C 116.476 348.404,116.736 349.258,117.634 349.493 C 118.274 349.660,118.343 349.793,117.934 350.063 C 117.495 350.352,117.507 350.503,118.000 350.908 C 118.330 351.178,118.607 351.580,118.616 351.800 C 118.643 352.499,120.176 355.600,120.494 355.600 C 120.662 355.600,120.800 355.960,120.800 356.400 C 120.800 356.840,120.980 357.200,121.200 357.200 C 121.420 357.200,121.600 357.560,121.600 358.000 C 121.600 358.440,121.780 358.800,122.000 358.800 C 122.220 358.800,122.400 359.160,122.400 359.600 C 122.400 360.040,122.580 360.400,122.800 360.400 C 123.020 360.400,123.200 360.760,123.200 361.200 C 123.200 361.640,123.380 362.000,123.600 362.000 C 123.820 362.000,124.000 362.360,124.000 362.800 C 124.000 363.240,124.180 363.600,124.400 363.600 C 124.620 363.600,124.800 363.960,124.800 364.400 C 124.800 364.840,124.936 365.200,125.102 365.200 C 125.269 365.200,125.651 365.785,125.952 366.500 C 128.112 371.632,132.991 380.812,133.463 380.631 C 133.758 380.518,134.000 380.584,134.000 380.779 C 134.000 380.974,133.788 381.204,133.529 381.290 C 133.261 381.380,133.193 381.664,133.370 381.951 C 133.541 382.228,133.933 382.358,134.240 382.240 C 134.548 382.122,134.800 382.184,134.800 382.379 C 134.800 382.574,134.588 382.804,134.329 382.890 C 134.061 382.980,133.993 383.264,134.170 383.551 C 134.341 383.828,134.733 383.958,135.040 383.840 C 135.348 383.722,135.600 383.799,135.600 384.013 C 135.600 384.226,135.420 384.400,135.200 384.400 C 134.980 384.400,134.800 384.760,134.800 385.200 C 134.800 385.640,134.980 386.000,135.200 386.000 C 135.420 386.000,135.600 386.234,135.600 386.520 C 135.600 387.256,136.541 389.193,136.900 389.197 C 137.065 389.199,137.200 389.560,137.200 390.000 C 137.200 390.440,137.380 390.800,137.600 390.800 C 137.820 390.800,138.000 391.160,138.000 391.600 C 138.000 392.040,138.180 392.400,138.400 392.400 C 138.620 392.400,138.800 392.720,138.800 393.112 C 138.800 393.503,139.160 394.083,139.600 394.400 C 140.040 394.717,140.406 395.162,140.413 395.388 C 140.433 396.062,142.314 398.000,142.947 398.000 C 143.270 398.000,143.638 398.225,143.767 398.500 C 143.953 398.900,144.047 398.900,144.233 398.500 C 144.362 398.225,144.668 398.000,144.913 398.000 C 145.224 398.000,145.214 398.146,144.880 398.480 C 143.794 399.566,146.462 400.468,147.972 399.525 C 148.610 399.126,148.883 399.123,149.270 399.510 C 149.987 400.227,326.813 400.227,327.530 399.510 C 327.917 399.123,328.185 399.123,328.805 399.510 C 329.922 400.208,330.799 400.116,330.806 399.300 C 330.811 398.699,330.869 398.685,331.214 399.200 C 331.565 399.725,331.682 399.713,332.147 399.106 C 332.440 398.725,332.798 398.532,332.944 398.677 C 333.531 399.265,335.614 396.701,335.093 396.032 C 334.672 395.492,334.690 395.470,335.219 395.882 C 336.035 396.517,337.438 395.018,338.794 392.059 C 339.734 390.007,339.745 389.895,339.048 389.385 C 338.245 388.798,338.502 387.911,339.377 388.246 C 339.937 388.462,340.124 388.073,340.602 385.700 C 340.768 384.875,340.706 384.400,340.432 384.400 C 340.194 384.400,340.000 384.130,340.000 383.800 C 340.000 383.470,340.180 383.200,340.400 383.200 C 340.620 383.200,340.800 383.380,340.800 383.600 C 340.800 383.820,340.980 384.000,341.200 384.000 C 341.783 384.000,341.691 381.699,341.100 381.488 C 340.809 381.384,340.748 381.161,340.955 380.955 C 341.161 380.748,341.384 380.809,341.488 381.100 C 341.825 382.042,342.400 381.600,342.400 380.400 C 342.400 379.740,342.220 379.200,342.000 379.200 C 341.780 379.200,341.600 378.918,341.600 378.573 C 341.600 378.128,341.832 378.020,342.400 378.200 C 343.024 378.398,343.200 378.272,343.200 377.627 C 343.200 377.172,343.020 376.800,342.800 376.800 C 342.580 376.800,342.400 376.518,342.400 376.173 C 342.400 375.728,342.632 375.620,343.200 375.800 C 343.824 375.998,344.000 375.872,344.000 375.227 C 344.000 374.772,343.820 374.400,343.600 374.400 C 343.380 374.400,343.200 374.118,343.200 373.773 C 343.200 373.328,343.432 373.220,344.000 373.400 C 344.655 373.608,344.800 373.472,344.800 372.651 C 344.800 372.099,344.980 371.536,345.200 371.400 C 345.721 371.078,345.721 368.800,345.200 368.800 C 344.980 368.800,344.800 368.508,344.800 368.151 C 344.800 367.653,344.925 367.606,345.337 367.948 C 345.632 368.193,345.992 368.275,346.137 368.130 C 346.549 367.718,346.445 366.400,346.000 366.400 C 345.780 366.400,345.600 366.130,345.600 365.800 C 345.600 365.470,345.780 365.200,346.000 365.200 C 346.220 365.200,346.400 365.391,346.400 365.624 C 346.400 365.857,346.580 365.936,346.800 365.800 C 347.430 365.411,347.267 363.711,346.575 363.446 C 345.686 363.105,346.308 362.317,347.234 362.611 C 347.853 362.807,348.000 362.657,348.000 361.827 C 348.000 361.262,347.820 360.800,347.600 360.800 C 347.380 360.800,347.200 360.547,347.200 360.237 C 347.200 359.872,347.480 359.748,348.000 359.884 C 349.002 360.146,349.166 358.226,348.175 357.846 C 347.286 357.505,347.838 356.833,348.800 357.084 C 349.453 357.255,349.600 357.096,349.600 356.223 C 349.600 355.611,349.429 355.259,349.200 355.400 C 348.980 355.536,348.800 355.354,348.800 354.997 C 348.800 354.528,349.024 354.417,349.600 354.600 C 350.589 354.914,350.783 352.922,349.800 352.545 C 348.868 352.187,349.093 351.535,350.100 351.675 C 350.776 351.769,351.032 351.576,351.128 350.900 C 351.198 350.405,351.063 350.000,350.828 350.000 C 350.593 350.000,350.400 349.708,350.400 349.351 C 350.400 348.853,350.525 348.806,350.937 349.148 C 351.232 349.393,351.592 349.475,351.737 349.330 C 352.231 348.836,352.001 347.286,351.400 347.055 C 350.463 346.696,350.696 345.935,351.700 346.075 C 352.376 346.169,352.632 345.976,352.728 345.300 C 352.818 344.663,352.653 344.400,352.161 344.400 C 351.779 344.400,351.599 344.267,351.762 344.105 C 351.924 343.943,352.359 343.808,352.728 343.805 C 353.162 343.802,353.445 343.410,353.527 342.700 C 353.619 341.893,353.477 341.600,352.993 341.600 C 352.630 341.600,352.408 341.376,352.499 341.102 C 352.591 340.828,353.011 340.603,353.433 340.602 C 353.926 340.601,354.246 340.275,354.329 339.690 C 354.407 339.139,354.269 338.824,353.979 338.890 C 353.716 338.951,353.408 338.746,353.295 338.436 C 353.148 338.030,353.292 337.950,353.813 338.150 C 354.240 338.314,354.669 338.217,354.862 337.914 C 355.342 337.157,355.270 335.985,354.750 336.100 C 354.503 336.155,354.208 335.948,354.096 335.639 C 353.950 335.237,354.126 335.140,354.721 335.295 C 355.237 335.430,355.633 335.290,355.774 334.923 C 356.141 333.967,356.037 333.600,355.400 333.600 C 355.070 333.600,354.800 333.330,354.800 333.000 C 354.800 332.277,355.267 332.227,355.920 332.880 C 356.293 333.253,356.407 333.231,356.433 332.780 C 356.452 332.461,356.511 331.803,356.565 331.319 C 356.619 330.834,356.513 330.530,356.329 330.644 C 355.933 330.888,355.392 329.675,355.741 329.326 C 355.873 329.194,356.235 329.297,356.545 329.555 C 357.009 329.940,357.138 329.780,357.269 328.657 C 357.385 327.662,357.289 327.345,356.914 327.488 C 356.587 327.614,356.400 327.350,356.400 326.763 C 356.400 326.045,356.507 325.947,356.880 326.320 C 357.658 327.098,358.000 326.878,358.000 325.600 C 358.000 324.940,357.820 324.400,357.600 324.400 C 357.380 324.400,357.200 324.118,357.200 323.773 C 357.200 323.328,357.432 323.220,358.000 323.400 C 358.681 323.616,358.800 323.472,358.800 322.427 C 358.800 321.752,358.620 321.200,358.400 321.200 C 358.180 321.200,358.000 320.947,358.000 320.637 C 358.000 320.272,358.280 320.148,358.800 320.284 C 359.449 320.454,359.600 320.296,359.600 319.447 C 359.600 318.871,359.420 318.400,359.200 318.400 C 358.980 318.400,358.800 318.118,358.800 317.773 C 358.800 317.328,359.032 317.220,359.600 317.400 C 360.281 317.616,360.400 317.472,360.400 316.427 C 360.400 315.752,360.220 315.200,360.000 315.200 C 359.780 315.200,359.600 314.918,359.600 314.573 C 359.600 314.128,359.832 314.020,360.400 314.200 C 361.058 314.409,361.200 314.272,361.200 313.427 C 361.200 312.862,361.020 312.400,360.800 312.400 C 360.580 312.400,360.400 312.028,360.400 311.573 C 360.400 310.928,360.576 310.802,361.200 311.000 C 361.881 311.216,362.000 311.072,362.000 310.027 C 362.000 309.352,361.820 308.800,361.600 308.800 C 361.380 308.800,361.200 308.518,361.200 308.173 C 361.200 307.728,361.432 307.620,362.000 307.800 C 362.698 308.022,362.800 307.872,362.800 306.627 C 362.800 305.842,362.620 305.200,362.400 305.200 C 362.180 305.200,362.000 304.840,362.000 304.400 C 362.000 303.960,362.180 303.600,362.400 303.600 C 362.620 303.600,362.800 303.791,362.800 304.024 C 362.800 304.257,362.980 304.336,363.200 304.200 C 363.420 304.064,363.600 303.413,363.600 302.753 C 363.600 302.055,363.433 301.656,363.200 301.800 C 362.980 301.936,362.800 301.677,362.800 301.224 C 362.800 300.771,362.980 300.400,363.200 300.400 C 363.420 300.400,363.600 300.591,363.600 300.824 C 363.600 301.057,363.780 301.136,364.000 301.000 C 364.607 300.625,364.478 298.821,363.796 298.139 C 363.034 297.377,363.423 296.690,364.434 297.011 C 365.425 297.325,365.562 295.025,364.575 294.646 C 363.777 294.340,364.240 293.542,365.130 293.689 C 366.094 293.848,366.286 291.698,365.369 291.027 C 364.500 290.392,364.998 289.482,366.034 289.811 C 367.064 290.138,367.152 287.346,366.135 286.602 C 365.718 286.297,365.570 285.854,365.740 285.413 C 365.944 284.880,366.138 284.817,366.542 285.151 C 367.265 285.752,367.600 285.316,367.600 283.776 C 367.600 282.998,367.362 282.394,367.000 282.255 C 366.055 281.893,366.218 280.259,367.174 280.509 C 368.412 280.833,368.978 278.307,367.772 277.845 C 366.844 277.489,367.198 275.800,368.200 275.800 C 368.811 275.800,369.030 275.491,369.126 274.491 C 369.214 273.574,369.095 273.215,368.726 273.291 C 368.384 273.362,368.200 272.980,368.200 272.200 C 368.200 271.185,368.339 271.019,369.100 271.125 C 370.229 271.282,370.510 267.081,369.400 266.655 C 368.957 266.485,368.800 265.783,368.800 263.970 C 368.800 261.840,368.889 261.548,369.468 261.771 C 369.836 261.912,370.282 261.797,370.462 261.514 C 370.952 260.742,370.890 160.411,370.400 160.350 C 370.180 160.322,369.775 160.278,369.500 160.250 C 368.728 160.173,368.619 157.933,369.367 157.514 C 369.991 157.165,370.249 155.182,369.737 154.670 C 369.592 154.525,369.248 154.594,368.972 154.823 C 368.621 155.115,368.383 155.096,368.175 154.759 C 368.007 154.488,368.165 154.068,368.539 153.795 C 369.291 153.245,369.421 151.784,368.755 151.372 C 368.511 151.221,368.153 151.346,367.961 151.649 C 367.685 152.085,367.611 152.054,367.606 151.500 C 367.603 151.115,367.780 150.800,368.000 150.800 C 368.884 150.800,368.036 148.208,366.917 147.489 C 366.651 147.319,366.535 146.914,366.659 146.589 C 366.784 146.265,366.686 146.000,366.443 146.000 C 366.199 146.000,366.000 145.640,366.000 145.200 C 366.000 144.760,365.820 144.400,365.600 144.400 C 365.380 144.400,365.200 144.040,365.200 143.600 C 365.200 143.160,365.020 142.800,364.800 142.800 C 364.580 142.800,364.400 142.480,364.400 142.088 C 364.400 141.697,364.040 141.117,363.600 140.800 C 363.160 140.483,362.800 139.903,362.800 139.512 C 362.800 139.120,362.524 138.800,362.187 138.800 C 361.851 138.800,361.458 138.485,361.315 138.100 C 361.172 137.715,360.728 137.109,360.328 136.753 C 359.927 136.397,359.600 135.878,359.600 135.600 C 359.600 135.006,357.606 133.201,356.948 133.200 C 356.700 133.200,355.880 132.497,355.127 131.638 C 354.026 130.381,349.661 127.524,348.800 127.495 C 348.690 127.491,348.043 127.063,347.362 126.544 C 346.105 125.585,344.400 125.272,344.400 126.000 C 344.400 126.220,344.208 126.400,343.973 126.400 C 343.728 126.400,343.654 126.059,343.800 125.600 C 343.998 124.976,343.872 124.800,343.227 124.800 C 342.772 124.800,342.400 124.980,342.400 125.200 C 342.400 125.420,342.147 125.600,341.837 125.600 C 341.472 125.600,341.348 125.320,341.484 124.800 C 341.655 124.147,341.496 124.000,340.623 124.000 C 340.011 124.000,339.659 124.171,339.800 124.400 C 339.937 124.622,339.644 124.800,339.144 124.800 C 338.441 124.800,338.347 124.693,338.720 124.320 C 339.525 123.515,339.266 123.200,337.800 123.200 C 337.030 123.200,336.400 123.380,336.400 123.600 C 336.400 123.820,335.838 124.000,335.151 124.000 C 334.152 124.000,333.991 123.893,334.348 123.463 C 335.119 122.533,334.411 122.400,328.706 122.400 C 323.328 122.400,323.154 122.426,323.400 123.200 C 323.609 123.858,323.472 124.000,322.627 124.000 C 322.062 124.000,321.600 123.820,321.600 123.600 C 321.600 123.380,321.048 123.200,320.373 123.200 C 319.328 123.200,319.184 123.319,319.400 124.000 C 319.580 124.568,319.472 124.800,319.027 124.800 C 318.682 124.800,318.400 124.620,318.400 124.400 C 318.400 124.180,317.848 124.000,317.173 124.000 C 316.128 124.000,315.984 124.119,316.200 124.800 C 316.346 125.259,316.272 125.600,316.027 125.600 C 315.792 125.600,315.600 125.399,315.600 125.153 C 315.600 124.893,315.184 124.786,314.600 124.898 C 313.929 125.026,313.600 124.910,313.600 124.545 C 313.600 124.245,313.420 124.000,313.200 124.000 C 312.980 124.000,312.800 123.640,312.800 123.200 C 312.800 122.760,312.620 122.400,312.400 122.400 C 312.180 122.400,312.000 122.040,312.000 121.600 C 312.000 121.160,311.820 120.800,311.600 120.800 C 311.380 120.800,311.200 120.440,311.200 120.000 C 311.200 119.542,310.933 119.200,310.576 119.200 C 310.233 119.200,310.064 119.020,310.200 118.800 C 310.336 118.580,310.285 118.400,310.088 118.400 C 309.890 118.400,309.521 117.945,309.268 117.390 C 308.257 115.171,301.200 108.130,298.968 107.113 C 298.436 106.870,298.000 106.510,298.000 106.312 C 298.000 106.115,297.835 106.055,297.632 106.180 C 297.430 106.305,297.001 106.144,296.680 105.823 C 296.358 105.501,295.984 105.350,295.848 105.486 C 295.711 105.622,295.600 105.433,295.600 105.067 C 295.600 104.667,295.280 104.400,294.800 104.400 C 294.360 104.400,294.000 104.220,294.000 104.000 C 294.000 103.780,293.550 103.600,293.000 103.600 C 292.450 103.600,292.000 103.780,292.000 104.000 C 292.000 104.220,291.801 104.400,291.557 104.400 C 291.314 104.400,291.224 104.113,291.359 103.763 C 291.522 103.338,291.336 103.056,290.802 102.916 C 290.361 102.801,290.000 102.587,290.000 102.441 C 290.000 102.294,289.540 102.136,288.978 102.090 C 288.386 102.041,288.059 102.172,288.202 102.403 C 288.337 102.621,288.041 102.800,287.544 102.800 C 286.841 102.800,286.747 102.693,287.120 102.320 C 287.919 101.521,287.668 101.200,286.243 101.200 C 285.405 101.200,284.797 101.430,284.655 101.800 C 284.296 102.737,283.535 102.504,283.675 101.500 C 283.784 100.718,283.598 100.583,282.260 100.473 C 281.356 100.399,280.817 100.504,280.955 100.728 C 281.340 101.350,279.669 101.589,274.887 101.595 C 271.242 101.599,270.331 101.485,270.145 101.000 C 270.006 100.638,269.402 100.400,268.624 100.400 C 267.103 100.400,266.648 100.734,267.223 101.428 C 267.483 101.741,267.496 102.017,267.256 102.166 C 266.724 102.494,265.555 101.997,265.826 101.558 C 265.948 101.361,265.566 101.200,264.977 101.200 C 264.104 101.200,263.945 101.347,264.116 102.000 C 264.367 102.962,263.695 103.514,263.354 102.625 C 263.091 101.939,260.800 101.736,260.800 102.400 C 260.800 102.620,260.440 102.800,260.000 102.800 C 259.560 102.800,259.200 102.980,259.200 103.200 C 259.200 103.420,258.930 103.600,258.600 103.600 C 258.270 103.600,258.000 103.280,258.000 102.888 C 258.000 102.497,257.640 101.917,257.200 101.600 C 256.760 101.283,256.400 100.722,256.400 100.354 C 256.400 99.987,256.130 99.582,255.800 99.455 C 255.470 99.329,255.200 98.978,255.200 98.677 C 255.200 97.930,247.733 90.400,246.992 90.400 C 246.666 90.400,246.400 90.220,246.400 90.000 C 246.400 89.780,246.130 89.600,245.800 89.600 C 245.470 89.600,245.200 89.810,245.200 90.067 C 245.200 90.323,245.084 90.418,244.943 90.276 C 244.802 90.135,244.914 89.745,245.192 89.410 C 245.611 88.905,245.583 88.800,245.033 88.800 C 244.483 88.800,242.367 87.567,241.600 86.800 C 241.490 86.690,241.130 86.541,240.800 86.470 C 240.470 86.398,240.140 86.173,240.067 85.970 C 239.886 85.470,238.400 85.497,238.400 86.000 C 238.400 86.220,238.220 86.400,238.000 86.400 C 237.780 86.400,237.600 86.040,237.600 85.600 C 237.600 85.067,237.333 84.800,236.800 84.800 C 236.360 84.800,236.000 84.620,236.000 84.400 C 236.000 83.880,234.522 83.880,234.200 84.400 C 234.064 84.620,233.761 84.800,233.527 84.800 C 233.237 84.800,233.243 84.630,233.548 84.263 C 233.793 83.968,233.875 83.608,233.730 83.463 C 233.209 82.943,231.078 83.214,230.605 83.861 C 230.332 84.235,229.912 84.393,229.641 84.225 C 229.304 84.017,229.285 83.779,229.577 83.428 C 230.507 82.307,227.234 81.946,225.824 83.013 C 224.721 83.847,219.266 83.837,218.945 83.000 C 218.544 81.955,213.867 82.152,214.200 83.200 C 214.380 83.768,214.272 84.000,213.827 84.000 C 213.482 84.000,213.200 83.820,213.200 83.600 C 213.200 83.380,212.660 83.200,212.000 83.200 C 210.722 83.200,210.502 83.542,211.280 84.320 C 211.653 84.693,211.559 84.800,210.856 84.800 C 210.356 84.800,210.063 84.622,210.200 84.400 C 210.546 83.840,209.860 83.900,209.280 84.480 C 208.907 84.853,208.800 79.431,208.800 60.080 C 208.800 43.760,208.938 35.200,209.200 35.200 C 209.420 35.200,209.600 34.491,209.600 33.624 C 209.600 32.757,209.420 31.936,209.200 31.800 C 208.980 31.664,208.800 31.743,208.800 31.976 C 208.800 32.209,208.620 32.400,208.400 32.400 C 208.180 32.400,208.000 32.130,208.000 31.800 C 208.000 31.470,208.180 31.200,208.400 31.200 C 208.620 31.200,208.800 30.648,208.800 29.973 C 208.800 28.928,208.681 28.784,208.000 29.000 C 207.445 29.176,207.200 29.072,207.200 28.660 C 207.200 28.334,207.419 27.994,207.687 27.904 C 208.911 27.496,205.441 20.000,204.029 20.000 C 203.793 20.000,203.600 19.820,203.600 19.600 C 203.600 19.380,203.782 19.200,204.003 19.200 C 204.471 19.200,203.749 17.833,202.700 16.734 C 202.315 16.330,202.000 15.816,202.000 15.592 C 202.000 15.039,194.519 7.600,193.963 7.600 C 193.720 7.600,193.017 7.060,192.400 6.400 C 191.783 5.740,190.991 5.200,190.640 5.200 C 190.288 5.200,190.000 5.020,190.000 4.800 C 190.000 4.580,189.640 4.400,189.200 4.400 C 188.760 4.400,188.400 4.220,188.400 4.000 C 188.400 3.780,188.055 3.600,187.633 3.600 C 187.212 3.600,186.775 3.375,186.664 3.100 C 186.505 2.709,186.379 2.716,186.086 3.134 C 185.794 3.549,185.663 3.483,185.493 2.834 C 185.274 1.997,184.400 1.650,184.400 2.400 C 184.400 2.620,184.108 2.800,183.751 2.800 C 183.253 2.800,183.206 2.675,183.548 2.263 C 183.793 1.968,183.875 1.608,183.730 1.463 C 183.318 1.051,182.000 1.155,182.000 1.600 C 182.000 1.820,181.812 2.000,181.582 2.000 C 181.353 2.000,181.218 1.685,181.282 1.300 C 181.368 0.792,181.087 0.564,180.257 0.469 C 179.591 0.393,179.215 0.500,179.355 0.727 C 179.487 0.941,179.332 1.217,179.011 1.341 C 178.344 1.596,177.830 0.999,178.200 0.400 C 178.558 -0.180,176.258 -0.098,175.670 0.490 C 175.283 0.877,175.015 0.877,174.395 0.490 C 173.318 -0.183,164.274 -0.178,163.195 0.496 C 162.562 0.891,162.238 0.891,161.605 0.496 C 160.448 -0.226,158.152 -0.180,158.761 0.553 M171.400 27.058 C 175.445 27.765,181.200 32.764,181.200 35.571 C 181.200 36.001,181.380 36.464,181.600 36.600 C 181.864 36.763,182.000 59.463,182.000 103.400 C 182.000 147.337,182.136 170.037,182.400 170.200 C 182.620 170.336,182.800 170.780,182.800 171.186 C 182.800 173.899,188.683 180.400,191.138 180.400 C 191.586 180.400,192.064 180.580,192.200 180.800 C 193.259 182.514,203.364 179.736,204.346 177.461 C 204.427 177.275,204.997 176.547,205.615 175.845 C 206.232 175.142,207.203 173.231,207.773 171.599 L 208.810 168.631 208.794 144.834 C 208.774 117.393,208.677 118.265,212.165 114.593 C 217.200 109.293,223.873 108.435,229.653 112.346 C 232.963 114.585,235.200 118.012,235.200 120.844 C 235.200 121.674,235.380 122.464,235.600 122.600 C 235.861 122.762,236.000 134.319,236.000 155.967 L 236.000 189.088 237.296 191.644 C 239.171 195.344,242.753 198.400,245.214 198.400 C 245.620 198.400,246.064 198.580,246.200 198.800 C 246.522 199.321,251.078 199.321,251.400 198.800 C 251.536 198.580,251.980 198.400,252.386 198.400 C 254.888 198.400,258.523 195.365,260.248 191.834 L 261.600 189.068 261.600 164.957 C 261.600 149.315,261.740 140.760,262.000 140.600 C 262.220 140.464,262.400 139.715,262.400 138.934 C 262.400 128.956,277.144 124.370,284.931 131.926 C 289.407 136.269,289.187 134.178,289.200 172.400 C 289.212 207.714,289.144 206.395,291.176 210.337 C 292.548 212.999,297.074 216.400,299.244 216.400 C 299.634 216.400,300.064 216.580,300.200 216.800 C 300.336 217.020,301.326 217.200,302.400 217.200 C 303.474 217.200,304.464 217.020,304.600 216.800 C 304.736 216.580,305.180 216.400,305.586 216.400 C 308.784 216.400,314.800 210.123,314.800 206.786 C 314.800 206.160,314.980 205.536,315.200 205.400 C 315.459 205.240,315.600 197.270,315.600 182.800 C 315.600 168.330,315.741 160.360,316.000 160.200 C 316.220 160.064,316.400 159.631,316.400 159.238 C 316.400 156.271,322.573 150.800,325.920 150.800 C 326.483 150.800,327.548 150.581,328.288 150.314 C 329.343 149.932,329.800 149.932,330.411 150.314 C 330.839 150.581,331.884 150.800,332.733 150.800 C 333.768 150.800,334.514 151.063,335.000 151.600 C 335.398 152.040,335.928 152.400,336.177 152.400 C 336.921 152.400,340.247 156.065,341.259 158.000 L 342.200 159.800 342.318 207.200 C 342.438 255.094,342.239 264.888,340.985 273.000 C 340.645 275.200,340.262 278.038,340.135 279.306 C 340.007 280.575,339.745 281.711,339.551 281.830 C 339.358 281.949,339.200 282.836,339.200 283.800 C 339.200 284.764,339.020 285.664,338.800 285.800 C 338.580 285.936,338.400 286.836,338.400 287.800 C 338.400 288.764,338.220 289.664,338.000 289.800 C 337.780 289.936,337.600 290.656,337.600 291.400 C 337.600 292.144,337.420 292.864,337.200 293.000 C 336.980 293.136,336.800 294.036,336.800 295.000 C 336.800 295.964,336.640 296.852,336.444 296.973 C 336.249 297.094,335.992 297.779,335.873 298.496 C 335.755 299.213,335.452 300.610,335.200 301.600 C 334.948 302.590,334.645 303.987,334.527 304.704 C 334.408 305.421,334.151 306.106,333.956 306.227 C 333.760 306.348,333.600 307.236,333.600 308.200 C 333.600 309.164,333.420 310.064,333.200 310.200 C 332.980 310.336,332.800 311.056,332.800 311.800 C 332.800 312.544,332.620 313.264,332.400 313.400 C 332.180 313.536,332.000 314.076,332.000 314.600 C 332.000 315.124,331.820 315.664,331.600 315.800 C 331.380 315.936,331.200 316.656,331.200 317.400 C 331.200 318.144,331.020 318.864,330.800 319.000 C 330.580 319.136,330.400 319.831,330.400 320.544 C 330.400 321.257,330.251 322.011,330.070 322.220 C 329.751 322.586,329.248 324.209,328.400 327.600 C 327.454 331.385,327.096 332.746,326.400 335.200 C 325.995 336.630,325.486 338.520,325.269 339.400 C 325.052 340.280,324.583 342.080,324.226 343.400 C 323.870 344.720,323.386 346.520,323.150 347.400 C 322.915 348.280,322.560 349.313,322.361 349.695 C 322.162 350.077,322.000 350.741,322.000 351.171 C 322.000 351.601,321.820 352.064,321.600 352.200 C 321.380 352.336,321.200 353.056,321.200 353.800 C 321.200 354.544,321.020 355.264,320.800 355.400 C 320.580 355.536,320.400 356.076,320.400 356.600 C 320.400 357.124,320.220 357.664,320.000 357.800 C 319.780 357.936,319.600 358.476,319.600 359.000 C 319.600 359.524,319.420 360.064,319.200 360.200 C 318.980 360.336,318.800 361.056,318.800 361.800 C 318.800 362.544,318.620 363.264,318.400 363.400 C 318.180 363.536,318.000 364.076,318.000 364.600 C 318.000 365.124,317.820 365.664,317.600 365.800 C 317.380 365.936,317.200 366.656,317.200 367.400 C 317.200 368.144,317.043 368.850,316.852 368.968 C 316.660 369.086,316.394 369.732,316.260 370.402 C 316.126 371.072,315.571 372.066,315.026 372.610 L 314.036 373.600 237.718 373.587 C 178.358 373.577,161.259 373.466,160.763 373.087 C 160.413 372.819,156.006 364.410,150.969 354.400 C 145.933 344.390,141.697 336.110,141.556 336.000 C 141.415 335.890,140.488 334.180,139.496 332.200 C 138.504 330.220,136.907 327.400,135.946 325.934 C 134.986 324.468,133.660 322.342,133.000 321.209 C 132.340 320.077,130.900 317.725,129.800 315.984 C 128.700 314.243,126.900 311.365,125.800 309.590 C 124.700 307.815,122.315 304.103,120.500 301.341 C 118.685 298.580,117.200 296.186,117.200 296.022 C 117.200 295.858,116.840 295.398,116.400 295.000 C 115.960 294.602,115.600 294.131,115.600 293.953 C 115.600 293.775,112.913 289.528,109.628 284.515 C 106.344 279.502,102.069 272.921,100.128 269.890 C 98.188 266.860,94.395 261.035,91.700 256.947 C 89.005 252.859,86.800 249.435,86.800 249.339 C 86.800 249.243,85.900 247.830,84.800 246.200 C 83.700 244.570,82.800 243.125,82.800 242.990 C 82.800 242.855,82.260 241.959,81.600 241.000 C 80.940 240.041,80.400 239.143,80.400 239.006 C 80.400 238.869,79.696 237.720,78.836 236.454 C 77.976 235.187,76.851 233.431,76.336 232.552 C 75.821 231.672,74.230 229.018,72.800 226.655 C 71.370 224.291,69.820 221.643,69.355 220.771 C 68.891 219.899,68.246 218.874,67.923 218.493 C 67.599 218.112,67.029 217.133,66.656 216.317 C 66.284 215.501,65.809 214.729,65.602 214.601 C 65.395 214.474,64.674 213.213,64.000 211.800 C 63.326 210.387,62.606 209.127,62.400 209.000 C 60.440 207.788,57.908 199.144,57.908 193.662 L 57.908 189.119 60.054 186.945 C 63.248 183.710,65.357 182.800,69.655 182.800 C 71.579 182.800,73.264 182.980,73.400 183.200 C 73.536 183.420,73.969 183.600,74.362 183.600 C 75.751 183.600,77.479 184.816,80.224 187.724 C 85.160 192.953,87.376 195.413,88.552 196.963 C 89.186 197.799,90.464 199.243,91.393 200.172 C 92.323 201.102,93.244 202.148,93.441 202.498 C 93.639 202.847,94.611 204.004,95.602 205.067 C 96.593 206.130,97.879 207.630,98.460 208.400 C 99.041 209.170,100.570 210.927,101.858 212.305 C 103.146 213.682,105.550 216.349,107.200 218.231 C 114.305 226.336,115.545 227.755,118.200 230.825 C 119.740 232.605,122.189 235.353,123.643 236.931 C 125.097 238.509,126.454 240.116,126.660 240.502 C 127.549 242.170,134.673 248.925,136.542 249.872 C 144.101 253.702,153.476 248.363,154.930 239.400 C 155.170 237.919,155.411 198.495,155.560 136.400 L 155.800 35.800 156.884 33.744 C 158.619 30.456,162.893 27.204,165.495 27.194 C 166.323 27.191,167.270 27.006,167.600 26.784 C 167.930 26.563,168.650 26.486,169.200 26.615 C 169.750 26.743,170.740 26.943,171.400 27.058 M314.400 126.000 C 314.400 126.220,313.995 126.397,313.500 126.394 C 312.772 126.389,312.715 126.314,313.200 126.000 C 313.976 125.499,314.400 125.499,314.400 126.000 M107.203 176.803 C 107.712 177.244,108.020 177.713,107.888 177.845 C 107.756 177.977,107.179 177.616,106.606 177.042 C 105.384 175.820,105.853 175.632,107.203 176.803 M123.600 195.600 C 124.107 196.040,124.328 196.400,124.090 196.400 C 123.673 196.400,122.400 195.324,122.400 194.971 C 122.400 194.653,122.674 194.797,123.600 195.600 M340.000 386.200 C 340.000 386.530,339.820 386.800,339.600 386.800 C 339.380 386.800,339.200 386.530,339.200 386.200 C 339.200 385.870,339.380 385.600,339.600 385.600 C 339.820 385.600,340.000 385.870,340.000 386.200 " stroke="none" fill="#fbcb04" fill-rule="evenodd"></path><path id="path1" d="M166.600 27.682 C 165.720 27.892,164.370 28.223,163.599 28.418 C 161.877 28.854,158.557 31.957,157.200 34.400 L 156.200 36.200 156.000 138.400 L 155.800 240.600 154.123 243.845 C 148.104 255.493,135.369 254.022,126.013 240.598 C 125.399 239.717,124.369 238.547,123.725 237.998 C 123.081 237.449,121.934 236.204,121.177 235.232 C 120.420 234.260,118.675 232.284,117.300 230.842 C 115.925 229.400,114.800 228.099,114.800 227.952 C 114.800 227.805,113.969 226.810,112.954 225.742 C 111.939 224.674,110.634 223.173,110.054 222.407 C 109.474 221.641,108.258 220.265,107.352 219.349 C 106.446 218.432,105.186 216.989,104.552 216.141 C 103.918 215.294,102.763 213.970,101.984 213.200 C 101.206 212.430,98.723 209.640,96.466 207.000 C 94.210 204.360,91.394 201.120,90.209 199.800 C 85.597 194.662,83.774 192.607,83.131 191.819 C 75.276 182.200,67.077 180.596,60.423 187.376 L 58.658 189.175 58.547 193.433 C 58.470 196.366,58.615 198.207,59.012 199.346 C 59.329 200.256,59.591 201.243,59.594 201.539 C 59.602 202.238,62.812 208.842,63.474 209.519 C 63.752 209.804,64.287 210.704,64.661 211.519 C 65.036 212.333,65.649 213.450,66.024 214.000 C 66.715 215.013,67.719 216.731,69.531 220.000 C 70.080 220.990,70.746 222.070,71.012 222.400 C 71.279 222.730,71.944 223.810,72.492 224.800 C 75.209 229.714,77.687 233.750,78.100 233.933 C 78.265 234.007,78.400 234.288,78.400 234.558 C 78.400 234.828,78.743 235.418,79.163 235.868 C 79.583 236.319,80.327 237.478,80.817 238.444 C 81.307 239.410,81.839 240.290,82.000 240.400 C 82.161 240.510,82.698 241.399,83.193 242.375 C 83.688 243.351,84.297 244.361,84.546 244.618 C 84.796 244.876,85.450 245.842,86.000 246.766 C 86.550 247.690,87.492 249.201,88.093 250.123 C 88.694 251.045,89.189 252.025,89.193 252.300 C 89.197 252.575,89.350 252.800,89.532 252.800 C 89.715 252.800,90.120 253.295,90.432 253.900 C 90.745 254.505,91.315 255.349,91.700 255.775 C 92.085 256.202,92.400 256.787,92.400 257.075 C 92.400 257.364,92.550 257.600,92.732 257.600 C 92.915 257.600,93.320 258.095,93.632 258.700 C 93.944 259.305,94.301 259.890,94.426 260.000 C 94.841 260.366,97.200 263.940,97.200 264.203 C 97.200 264.345,98.730 266.710,100.600 269.457 C 102.470 272.205,104.000 274.539,104.000 274.645 C 104.000 274.750,104.900 276.170,106.000 277.800 C 107.100 279.430,108.000 280.870,108.000 280.999 C 108.000 281.128,108.360 281.620,108.800 282.092 C 109.240 282.564,109.600 283.187,109.600 283.475 C 109.600 283.764,109.758 284.000,109.951 284.000 C 110.145 284.000,110.527 284.540,110.800 285.200 C 111.073 285.860,111.433 286.400,111.600 286.400 C 111.767 286.400,112.127 286.940,112.400 287.600 C 112.673 288.260,113.033 288.800,113.200 288.800 C 113.367 288.800,113.727 289.340,114.000 290.000 C 114.273 290.660,114.626 291.200,114.784 291.200 C 114.942 291.200,115.297 291.695,115.572 292.300 C 115.847 292.905,117.586 295.684,119.436 298.475 C 121.286 301.266,122.800 303.741,122.800 303.975 C 122.800 304.209,122.950 304.400,123.132 304.400 C 123.315 304.400,123.716 304.895,124.023 305.500 C 124.329 306.105,125.440 307.897,126.490 309.482 C 127.541 311.067,128.400 312.457,128.400 312.571 C 128.400 312.684,129.435 314.371,130.700 316.318 C 131.965 318.265,133.450 320.622,134.000 321.556 C 134.550 322.490,135.720 324.367,136.601 325.727 C 137.482 327.087,139.007 329.820,139.991 331.800 C 140.975 333.780,141.875 335.490,141.990 335.600 C 142.467 336.055,143.982 338.997,152.084 355.200 C 156.760 364.550,160.768 372.332,160.992 372.494 C 161.903 373.151,313.895 372.848,314.555 372.188 C 314.891 371.852,315.468 370.547,315.836 369.288 C 317.686 362.966,318.120 361.513,319.207 358.000 C 320.357 354.283,321.929 349.006,323.556 343.400 C 324.003 341.860,324.474 340.060,324.603 339.400 C 324.731 338.740,325.174 337.030,325.587 335.600 C 325.999 334.170,326.516 332.280,326.735 331.400 C 327.391 328.767,327.925 326.764,328.814 323.600 C 329.277 321.950,329.838 319.880,330.060 319.000 C 330.282 318.120,330.795 316.230,331.200 314.800 C 332.254 311.082,332.077 311.818,336.828 291.400 C 338.516 284.146,340.217 274.484,339.868 274.135 C 339.724 273.991,339.815 273.623,340.068 273.318 C 340.322 273.012,340.575 271.788,340.631 270.598 C 340.686 269.408,340.882 268.201,341.066 267.917 C 341.462 267.303,341.740 162.819,341.352 160.389 C 339.892 151.258,327.004 148.026,319.696 154.958 C 316.365 158.118,316.400 157.825,316.400 182.183 C 316.400 207.820,316.218 209.071,311.845 213.446 C 304.086 221.211,292.838 217.962,289.004 206.850 C 288.484 205.344,288.400 200.495,288.400 172.165 C 288.400 139.460,288.394 139.214,287.541 136.935 C 283.794 126.921,269.597 125.748,264.387 135.023 C 262.806 137.838,262.675 139.842,262.434 165.000 L 262.200 189.400 261.106 191.661 C 255.851 202.524,242.112 202.546,236.651 191.701 L 235.200 188.820 235.200 156.510 C 235.199 121.571,235.140 120.479,233.047 116.702 C 229.243 109.840,218.840 108.739,212.998 114.581 C 209.349 118.230,209.511 116.798,209.582 144.663 C 209.625 161.460,209.512 169.207,209.222 169.386 C 208.990 169.530,208.800 170.076,208.800 170.600 C 208.800 171.124,208.620 171.664,208.400 171.800 C 208.180 171.936,208.000 172.442,207.999 172.924 C 207.999 173.406,207.458 174.430,206.797 175.200 C 206.137 175.970,205.502 176.893,205.387 177.251 C 205.095 178.156,201.398 180.530,199.029 181.332 C 193.171 183.316,186.391 180.285,183.366 174.329 C 181.063 169.795,181.212 174.696,181.206 103.194 C 181.199 29.304,181.428 34.940,178.308 31.693 C 176.217 29.517,170.392 26.887,168.468 27.251 C 168.320 27.278,167.480 27.473,166.600 27.682 " stroke="none" fill="#fcdc43" fill-rule="evenodd"></path><path id="path2" d="M167.600 26.784 C 167.270 27.006,166.323 27.191,165.495 27.194 C 163.720 27.201,162.916 27.610,160.086 29.943 C 158.087 31.591,155.910 34.800,156.792 34.800 C 157.016 34.800,157.200 34.530,157.200 34.200 C 157.200 33.870,157.380 33.600,157.600 33.600 C 157.820 33.600,158.000 33.371,158.000 33.090 C 158.000 31.525,163.208 28.000,165.520 28.000 C 166.151 28.000,166.792 27.875,166.945 27.722 C 167.628 27.039,172.442 27.762,174.500 28.856 C 174.946 29.093,175.200 29.084,175.200 28.833 C 175.200 28.352,173.043 27.345,171.400 27.058 C 170.740 26.943,169.750 26.743,169.200 26.615 C 168.650 26.486,167.930 26.563,167.600 26.784 M175.855 29.400 C 175.982 29.730,176.267 30.000,176.489 30.000 C 177.457 30.000,181.194 34.939,180.644 35.490 C 180.525 35.608,180.604 36.034,180.819 36.435 C 181.068 36.902,181.207 60.987,181.202 103.198 C 181.196 161.621,181.266 169.367,181.806 170.411 C 182.142 171.060,182.395 171.692,182.370 171.815 C 182.246 172.417,184.726 176.634,185.745 177.553 C 186.382 178.129,187.226 178.900,187.619 179.267 C 188.012 179.633,188.438 179.828,188.567 179.700 C 188.695 179.572,188.800 179.665,188.800 179.906 C 188.800 180.288,189.817 180.835,190.400 180.767 C 190.510 180.754,191.140 180.950,191.800 181.201 C 193.754 181.947,197.213 181.941,199.263 181.188 C 201.525 180.359,205.200 178.031,205.200 177.429 C 205.200 177.188,205.650 176.507,206.200 175.913 C 206.750 175.320,207.200 174.647,207.200 174.417 C 207.200 174.188,207.357 174.000,207.550 174.000 C 207.743 174.000,207.900 173.513,207.900 172.917 C 207.900 172.321,208.103 171.766,208.350 171.683 C 208.597 171.601,208.800 171.109,208.800 170.590 C 208.800 170.072,208.990 169.530,209.221 169.387 C 209.510 169.208,209.626 161.364,209.589 144.463 L 209.536 119.800 210.422 118.000 C 214.498 109.717,225.921 108.220,232.100 115.158 C 232.705 115.837,233.200 116.629,233.200 116.917 C 233.200 117.204,233.425 117.665,233.700 117.940 C 233.975 118.215,234.222 118.611,234.250 118.820 C 234.278 119.029,234.345 119.290,234.400 119.400 C 234.455 119.510,234.549 120.095,234.610 120.700 C 234.762 122.227,234.995 123.128,235.322 123.455 C 235.475 123.608,235.600 138.511,235.600 156.573 L 235.600 189.412 236.803 191.879 C 237.928 194.184,240.268 197.065,240.681 196.652 C 240.782 196.551,240.351 195.958,239.723 195.334 C 239.095 194.710,238.001 193.050,237.291 191.644 L 236.000 189.088 236.000 155.967 C 236.000 134.319,235.861 122.762,235.600 122.600 C 235.380 122.464,235.200 121.674,235.200 120.844 C 235.200 118.012,232.963 114.585,229.653 112.346 C 223.873 108.435,217.200 109.293,212.165 114.593 C 208.677 118.265,208.774 117.393,208.794 144.834 L 208.810 168.631 207.773 171.599 C 207.203 173.231,206.232 175.142,205.615 175.845 C 204.997 176.547,204.427 177.275,204.346 177.461 C 203.364 179.736,193.259 182.514,192.200 180.800 C 192.064 180.580,191.586 180.400,191.138 180.400 C 188.683 180.400,182.800 173.899,182.800 171.186 C 182.800 170.780,182.620 170.336,182.400 170.200 C 182.136 170.037,182.000 147.337,182.000 103.400 C 182.000 59.463,181.864 36.763,181.600 36.600 C 181.380 36.464,181.200 36.001,181.200 35.571 C 181.200 34.432,180.455 33.265,178.215 30.900 C 176.216 28.788,175.429 28.288,175.855 29.400 M155.903 35.300 C 155.849 35.355,155.696 80.760,155.562 136.200 C 155.311 240.613,155.313 240.470,153.557 243.600 C 152.480 245.517,151.928 246.800,152.178 246.800 C 152.706 246.800,155.632 240.463,155.666 239.245 C 155.930 229.774,156.344 35.200,156.100 35.200 C 156.045 35.200,155.956 35.245,155.903 35.300 M269.600 129.185 C 265.727 131.202,262.400 135.708,262.400 138.934 C 262.400 139.715,262.220 140.464,262.000 140.600 C 261.740 140.760,261.600 149.315,261.600 164.957 L 261.600 189.068 260.231 191.880 C 259.478 193.427,258.398 195.058,257.831 195.504 C 257.264 195.950,256.800 196.513,256.800 196.754 C 256.800 196.995,257.295 196.668,257.900 196.026 C 259.847 193.962,260.400 193.203,260.400 192.595 C 260.400 192.268,260.541 192.000,260.712 192.000 C 262.032 192.000,262.186 189.576,262.428 165.000 C 262.670 140.343,262.811 138.045,264.244 135.200 C 268.763 126.235,283.025 126.608,287.154 135.800 C 287.451 136.460,287.852 137.313,288.047 137.695 C 288.243 138.080,288.400 153.200,288.400 171.659 C 288.400 205.987,288.543 209.200,290.073 209.200 C 290.253 209.200,290.400 209.560,290.400 210.000 C 290.400 210.440,290.580 210.800,290.800 210.800 C 291.020 210.800,291.200 211.036,291.200 211.324 C 291.200 211.986,294.243 214.805,295.815 215.599 C 296.467 215.929,297.132 216.379,297.294 216.599 C 297.456 216.820,297.591 216.843,297.594 216.651 C 297.597 216.459,297.870 216.526,298.200 216.800 C 298.530 217.074,298.800 217.195,298.800 217.069 C 298.800 216.944,299.424 217.102,300.187 217.420 C 301.784 218.087,303.664 218.176,304.229 217.611 C 304.442 217.398,304.973 217.167,305.409 217.099 C 308.557 216.607,313.419 212.545,314.476 209.525 C 316.535 203.637,316.421 205.259,316.390 182.298 C 316.369 166.885,316.493 160.381,316.832 159.251 C 317.405 157.340,319.887 153.948,321.110 153.405 C 321.600 153.188,322.000 152.862,322.000 152.682 C 322.000 152.501,322.180 152.464,322.400 152.600 C 322.620 152.736,322.800 152.657,322.800 152.424 C 322.800 152.191,323.149 152.000,323.576 152.000 C 324.003 152.000,324.454 151.837,324.577 151.638 C 324.700 151.438,325.160 151.369,325.599 151.484 C 326.038 151.599,327.028 151.393,327.799 151.028 C 329.097 150.411,329.301 150.410,330.576 151.015 C 331.332 151.374,332.277 151.593,332.676 151.501 C 333.719 151.259,335.876 152.616,338.359 155.076 C 339.547 156.252,340.602 157.132,340.703 157.030 C 340.983 156.750,336.755 152.400,336.204 152.400 C 335.940 152.400,335.398 152.040,335.000 151.600 C 334.514 151.063,333.768 150.800,332.733 150.800 C 331.884 150.800,330.839 150.581,330.411 150.314 C 329.800 149.932,329.343 149.932,328.288 150.314 C 327.548 150.581,326.483 150.800,325.920 150.800 C 322.573 150.800,316.400 156.271,316.400 159.238 C 316.400 159.631,316.220 160.064,316.000 160.200 C 315.741 160.360,315.600 168.330,315.600 182.800 C 315.600 197.270,315.459 205.240,315.200 205.400 C 314.980 205.536,314.800 206.160,314.800 206.786 C 314.800 210.123,308.784 216.400,305.586 216.400 C 305.180 216.400,304.736 216.580,304.600 216.800 C 304.464 217.020,303.474 217.200,302.400 217.200 C 301.326 217.200,300.336 217.020,300.200 216.800 C 300.064 216.580,299.634 216.400,299.244 216.400 C 297.074 216.400,292.548 212.999,291.176 210.337 C 289.144 206.395,289.212 207.714,289.200 172.400 C 289.190 143.908,289.105 139.161,288.580 137.652 C 285.765 129.570,276.658 125.508,269.600 129.185 M340.991 158.782 C 341.675 160.106,341.749 266.860,341.066 267.917 C 340.882 268.201,340.687 269.385,340.633 270.546 C 340.579 271.708,340.393 272.888,340.220 273.168 C 340.046 273.449,339.851 274.516,339.785 275.539 C 339.719 276.563,339.553 277.940,339.416 278.600 C 339.279 279.260,338.993 280.790,338.780 282.000 C 337.926 286.853,337.387 289.425,336.684 292.000 C 336.353 293.210,335.952 295.190,335.792 296.400 C 335.632 297.610,335.325 299.050,335.110 299.600 C 334.896 300.150,334.630 301.140,334.520 301.800 C 334.411 302.460,334.144 303.330,333.928 303.734 C 333.712 304.138,333.633 304.566,333.752 304.685 C 333.871 304.804,333.713 305.513,333.400 306.261 C 333.088 307.008,332.928 307.869,333.045 308.174 C 333.162 308.478,333.000 309.239,332.684 309.864 C 332.368 310.489,332.181 311.198,332.268 311.439 C 332.355 311.681,332.262 312.311,332.061 312.839 C 331.860 313.368,331.678 313.937,331.656 314.104 C 331.634 314.271,331.330 314.963,330.979 315.640 C 330.629 316.318,330.431 317.104,330.539 317.386 C 330.648 317.669,330.476 318.403,330.157 319.017 C 329.839 319.631,329.648 320.329,329.734 320.567 C 329.820 320.805,329.652 321.472,329.361 322.049 C 329.070 322.626,328.940 323.207,329.073 323.340 C 329.206 323.472,329.102 323.836,328.843 324.148 C 328.585 324.460,328.304 325.257,328.220 325.921 C 328.136 326.584,327.861 327.513,327.608 327.985 C 327.355 328.458,327.225 329.059,327.319 329.322 C 327.413 329.585,327.234 330.307,326.921 330.927 C 326.608 331.547,326.428 332.267,326.521 332.527 C 326.614 332.787,326.440 333.495,326.135 334.100 C 325.829 334.705,325.679 335.200,325.800 335.200 C 325.921 335.200,325.735 335.752,325.386 336.427 C 325.037 337.102,324.825 337.867,324.916 338.127 C 325.006 338.387,324.845 339.275,324.558 340.100 C 324.271 340.925,324.122 341.600,324.228 341.600 C 324.334 341.600,324.141 342.140,323.800 342.800 C 323.459 343.460,323.280 344.000,323.404 344.000 C 323.527 344.000,323.460 344.315,323.254 344.700 C 323.048 345.085,322.773 346.076,322.642 346.903 C 322.511 347.729,322.244 348.719,322.050 349.103 C 321.403 350.380,319.856 355.819,320.060 356.098 C 320.102 356.154,319.912 356.617,319.640 357.126 C 319.122 358.093,318.861 358.987,318.509 361.000 C 318.394 361.660,318.146 362.394,317.958 362.631 C 317.770 362.869,317.536 363.499,317.438 364.031 C 317.340 364.564,317.224 365.045,317.180 365.100 C 317.136 365.155,317.078 365.365,317.050 365.567 C 317.023 365.768,316.877 366.056,316.728 366.206 C 316.578 366.356,316.553 366.733,316.672 367.044 C 316.792 367.355,316.693 367.847,316.453 368.136 C 316.212 368.426,315.959 369.009,315.888 369.431 C 315.726 370.413,314.811 372.113,314.240 372.494 C 313.665 372.878,161.525 372.878,160.992 372.494 C 160.767 372.332,159.958 370.940,159.194 369.400 C 158.429 367.860,157.668 366.540,157.502 366.467 C 157.336 366.393,157.200 365.988,157.200 365.567 C 157.200 365.145,157.020 364.800,156.800 364.800 C 156.580 364.800,156.400 364.440,156.400 364.000 C 156.400 363.560,156.220 363.200,156.000 363.200 C 155.780 363.200,155.600 362.840,155.600 362.400 C 155.600 361.960,155.420 361.600,155.200 361.600 C 154.980 361.600,154.800 361.240,154.800 360.800 C 154.800 360.360,154.620 360.000,154.400 360.000 C 154.180 360.000,154.000 359.640,154.000 359.200 C 154.000 358.760,153.790 358.400,153.533 358.400 C 153.277 358.400,153.180 358.287,153.319 358.148 C 153.585 357.881,149.613 349.894,149.100 349.667 C 148.935 349.593,148.800 349.188,148.800 348.767 C 148.800 348.345,148.620 348.000,148.400 348.000 C 148.180 348.000,148.000 347.640,148.000 347.200 C 148.000 346.760,147.820 346.400,147.600 346.400 C 147.380 346.400,147.200 346.040,147.200 345.600 C 147.200 345.160,147.020 344.800,146.800 344.800 C 146.580 344.800,146.400 344.440,146.400 344.000 C 146.400 343.560,146.220 343.200,146.000 343.200 C 145.780 343.200,145.600 342.966,145.600 342.680 C 145.600 341.944,144.659 340.007,144.300 340.003 C 144.135 340.001,144.000 339.655,144.000 339.233 C 144.000 338.812,143.865 338.407,143.700 338.333 C 143.324 338.166,142.025 336.036,141.729 335.100 C 141.607 334.715,141.348 334.400,141.153 334.400 C 140.959 334.400,140.800 334.040,140.800 333.600 C 140.800 333.160,140.620 332.800,140.400 332.800 C 140.180 332.800,140.000 332.440,140.000 332.000 C 140.000 331.560,139.820 331.200,139.600 331.200 C 139.380 331.200,139.200 330.840,139.200 330.400 C 139.200 329.960,139.020 329.600,138.800 329.600 C 138.580 329.600,138.400 329.322,138.400 328.983 C 138.400 328.644,138.217 328.149,137.994 327.883 C 137.326 327.087,135.653 324.463,134.962 323.127 C 134.606 322.438,133.974 321.509,133.557 321.062 C 133.141 320.615,132.800 320.100,132.800 319.918 C 132.800 319.580,130.000 315.162,129.557 314.800 C 129.422 314.690,128.995 313.970,128.609 313.200 C 128.222 312.430,126.937 310.332,125.753 308.538 C 124.569 306.744,123.600 305.162,123.600 305.021 C 123.600 304.881,123.285 304.426,122.900 304.010 C 122.515 303.594,121.840 302.571,121.400 301.737 C 120.960 300.902,120.285 299.900,119.900 299.510 C 119.515 299.119,119.200 298.539,119.200 298.220 C 119.200 297.901,118.973 297.496,118.696 297.320 C 118.059 296.915,116.201 294.062,115.845 292.942 C 115.607 292.193,115.175 291.571,113.592 289.700 C 113.359 289.425,113.273 289.200,113.400 289.200 C 113.528 289.200,113.185 288.717,112.638 288.127 C 112.090 287.537,111.734 286.907,111.845 286.727 C 111.956 286.547,111.878 286.400,111.672 286.400 C 111.466 286.400,111.073 285.860,110.800 285.200 C 110.527 284.540,110.145 284.000,109.951 284.000 C 109.758 284.000,109.600 283.752,109.600 283.449 C 109.600 283.146,109.327 282.671,108.993 282.394 C 108.659 282.117,108.110 281.309,107.773 280.599 C 107.436 279.889,106.854 278.969,106.480 278.554 C 106.106 278.139,105.545 277.305,105.232 276.700 C 104.920 276.095,104.515 275.600,104.332 275.600 C 104.150 275.600,104.000 275.240,104.000 274.800 C 104.000 274.360,103.832 274.000,103.627 274.000 C 103.422 274.000,103.140 273.641,103.001 273.202 C 102.862 272.764,102.534 272.176,102.274 271.897 C 101.572 271.145,97.458 264.860,96.384 262.900 C 95.872 261.965,95.306 261.200,95.126 261.200 C 94.947 261.200,94.800 260.930,94.800 260.600 C 94.800 260.270,94.620 260.000,94.400 260.000 C 94.180 260.000,94.000 259.730,94.000 259.400 C 94.000 259.070,93.820 258.800,93.600 258.800 C 93.380 258.800,93.200 258.530,93.200 258.200 C 93.200 257.870,93.020 257.600,92.800 257.600 C 92.580 257.600,92.400 257.364,92.400 257.075 C 92.400 256.787,92.085 256.195,91.700 255.760 C 90.497 254.402,89.201 252.453,88.802 251.406 C 88.592 250.853,88.247 250.400,88.036 250.400 C 87.825 250.400,87.424 249.770,87.146 249.000 C 86.867 248.230,86.495 247.600,86.320 247.600 C 86.144 247.600,86.000 247.330,86.000 247.000 C 86.000 246.670,85.823 246.400,85.608 246.400 C 85.392 246.400,85.102 245.950,84.964 245.400 C 84.826 244.850,84.543 244.400,84.334 244.400 C 84.126 244.400,83.580 243.545,83.121 242.500 C 82.662 241.455,82.164 240.510,82.013 240.400 C 81.863 240.290,81.304 239.391,80.770 238.402 C 80.237 237.413,79.485 236.255,79.100 235.827 C 78.715 235.399,78.400 234.813,78.400 234.525 C 78.400 234.236,78.265 234.000,78.099 234.000 C 77.934 234.000,77.369 233.190,76.844 232.200 C 76.319 231.210,75.767 230.400,75.619 230.400 C 75.471 230.400,75.102 229.770,74.800 229.000 C 74.498 228.230,74.104 227.600,73.925 227.600 C 73.746 227.600,73.600 227.366,73.600 227.080 C 73.600 226.794,73.375 226.335,73.100 226.060 C 72.825 225.785,72.595 225.434,72.590 225.280 C 72.578 224.957,71.144 222.698,70.762 222.400 C 70.620 222.290,70.023 221.300,69.435 220.200 C 67.240 216.098,66.592 214.997,66.300 214.867 C 66.135 214.793,66.000 214.478,66.000 214.167 C 66.000 213.855,65.820 213.600,65.600 213.600 C 65.380 213.600,65.200 213.328,65.200 212.995 C 65.200 211.976,63.719 209.748,63.312 210.155 C 63.150 210.317,65.013 213.920,65.672 214.719 C 65.982 215.094,66.489 215.940,66.800 216.600 C 67.111 217.260,67.623 218.112,67.938 218.493 C 68.253 218.874,68.891 219.899,69.355 220.771 C 69.820 221.643,71.370 224.291,72.800 226.655 C 74.230 229.018,75.821 231.672,76.336 232.552 C 76.851 233.431,77.976 235.187,78.836 236.454 C 79.696 237.720,80.400 238.869,80.400 239.006 C 80.400 239.143,80.940 240.041,81.600 241.000 C 82.260 241.959,82.800 242.855,82.800 242.990 C 82.800 243.125,83.700 244.570,84.800 246.200 C 85.900 247.830,86.800 249.243,86.800 249.339 C 86.800 249.435,89.005 252.859,91.700 256.947 C 94.395 261.035,98.188 266.860,100.128 269.890 C 102.069 272.921,106.344 279.502,109.628 284.515 C 112.913 289.528,115.600 293.775,115.600 293.953 C 115.600 294.131,115.960 294.602,116.400 295.000 C 116.840 295.398,117.200 295.858,117.200 296.022 C 117.200 296.186,118.685 298.580,120.500 301.341 C 122.315 304.103,124.700 307.815,125.800 309.590 C 126.900 311.365,128.700 314.243,129.800 315.984 C 130.900 317.725,132.340 320.077,133.000 321.209 C 133.660 322.342,134.986 324.468,135.946 325.934 C 136.907 327.400,138.504 330.220,139.496 332.200 C 140.488 334.180,141.415 335.890,141.556 336.000 C 141.697 336.110,145.933 344.390,150.969 354.400 C 156.006 364.410,160.413 372.819,160.763 373.087 C 161.259 373.466,178.358 373.577,237.718 373.587 L 314.036 373.600 315.026 372.610 C 315.571 372.066,316.126 371.072,316.260 370.402 C 316.394 369.732,316.660 369.086,316.852 368.968 C 317.043 368.850,317.200 368.144,317.200 367.400 C 317.200 366.656,317.380 365.936,317.600 365.800 C 317.820 365.664,318.000 365.124,318.000 364.600 C 318.000 364.076,318.180 363.536,318.400 363.400 C 318.620 363.264,318.800 362.544,318.800 361.800 C 318.800 361.056,318.980 360.336,319.200 360.200 C 319.420 360.064,319.600 359.524,319.600 359.000 C 319.600 358.476,319.780 357.936,320.000 357.800 C 320.220 357.664,320.400 357.124,320.400 356.600 C 320.400 356.076,320.580 355.536,320.800 355.400 C 321.020 355.264,321.200 354.544,321.200 353.800 C 321.200 353.056,321.380 352.336,321.600 352.200 C 321.820 352.064,322.000 351.601,322.000 351.171 C 322.000 350.741,322.162 350.077,322.361 349.695 C 322.560 349.313,322.915 348.280,323.150 347.400 C 323.386 346.520,323.870 344.720,324.226 343.400 C 324.583 342.080,325.052 340.280,325.269 339.400 C 325.486 338.520,325.995 336.630,326.400 335.200 C 326.805 333.770,327.316 331.880,327.535 331.000 C 329.075 324.818,329.704 322.641,330.070 322.220 C 330.251 322.011,330.400 321.257,330.400 320.544 C 330.400 319.831,330.580 319.136,330.800 319.000 C 331.020 318.864,331.200 318.144,331.200 317.400 C 331.200 316.656,331.380 315.936,331.600 315.800 C 331.820 315.664,332.000 315.124,332.000 314.600 C 332.000 314.076,332.180 313.536,332.400 313.400 C 332.620 313.264,332.800 312.544,332.800 311.800 C 332.800 311.056,332.980 310.336,333.200 310.200 C 333.420 310.064,333.600 309.164,333.600 308.200 C 333.600 307.236,333.760 306.348,333.956 306.227 C 334.151 306.106,334.408 305.421,334.527 304.704 C 334.645 303.987,334.948 302.590,335.200 301.600 C 335.452 300.610,335.755 299.213,335.873 298.496 C 335.992 297.779,336.249 297.094,336.444 296.973 C 336.640 296.852,336.800 295.964,336.800 295.000 C 336.800 294.036,336.980 293.136,337.200 293.000 C 337.420 292.864,337.600 292.144,337.600 291.400 C 337.600 290.656,337.780 289.936,338.000 289.800 C 338.220 289.664,338.400 288.764,338.400 287.800 C 338.400 286.836,338.580 285.936,338.800 285.800 C 339.020 285.664,339.200 284.764,339.200 283.800 C 339.200 282.836,339.358 281.949,339.551 281.830 C 339.745 281.711,340.007 280.575,340.135 279.306 C 340.262 278.038,340.645 275.200,340.985 273.000 C 342.239 264.888,342.438 255.094,342.318 207.200 C 342.197 158.454,342.169 157.600,340.726 157.600 C 340.535 157.600,340.655 158.132,340.991 158.782 M64.604 183.510 C 63.019 184.339,64.026 184.645,65.658 183.831 C 67.904 182.711,72.858 183.202,76.400 184.897 C 77.609 185.475,82.000 189.767,82.000 190.370 C 82.000 190.607,82.210 190.800,82.467 190.800 C 82.723 190.800,82.835 190.899,82.714 191.019 C 82.594 191.140,83.823 192.610,85.446 194.287 C 87.069 195.964,88.328 197.405,88.243 197.490 C 88.159 197.575,89.104 198.673,90.345 199.930 C 91.585 201.188,93.050 202.833,93.600 203.587 C 94.150 204.340,95.275 205.649,96.100 206.495 C 96.925 207.340,97.600 208.107,97.600 208.198 C 97.600 208.362,97.877 208.668,101.572 212.600 C 102.606 213.700,103.936 215.263,104.526 216.073 C 105.117 216.884,106.455 218.447,107.500 219.547 C 108.545 220.647,109.940 222.213,110.600 223.028 C 111.260 223.843,112.475 225.184,113.300 226.008 C 114.125 226.832,114.800 227.616,114.800 227.750 C 114.800 228.055,116.024 229.505,118.600 232.251 C 119.700 233.423,121.140 235.037,121.800 235.838 C 122.460 236.639,123.603 237.858,124.341 238.547 C 125.078 239.236,125.920 240.250,126.212 240.800 C 128.346 244.821,137.432 251.955,139.835 251.495 C 140.376 251.392,140.915 251.463,141.033 251.654 C 141.323 252.122,143.094 252.095,143.389 251.617 C 143.519 251.407,143.878 251.332,144.187 251.450 C 144.850 251.705,150.000 249.334,150.000 248.774 C 150.000 248.562,148.875 248.962,147.500 249.662 C 144.144 251.372,139.672 251.458,136.542 249.872 C 134.673 248.925,127.549 242.170,126.660 240.502 C 126.454 240.116,125.097 238.509,123.643 236.931 C 122.189 235.353,119.740 232.605,118.200 230.825 C 115.545 227.755,114.305 226.336,107.200 218.231 C 105.550 216.349,103.146 213.682,101.858 212.305 C 100.570 210.927,99.041 209.170,98.460 208.400 C 97.879 207.630,96.593 206.130,95.602 205.067 C 94.611 204.004,93.639 202.847,93.441 202.498 C 93.244 202.148,92.323 201.102,91.393 200.172 C 90.464 199.243,89.186 197.799,88.552 196.963 C 87.376 195.413,85.160 192.953,80.224 187.724 C 77.479 184.816,75.751 183.600,74.362 183.600 C 73.969 183.600,73.536 183.420,73.400 183.200 C 72.993 182.542,65.983 182.789,64.604 183.510 M60.241 186.758 L 57.908 189.116 57.908 193.661 C 57.908 199.526,60.312 207.364,62.688 209.247 C 63.352 209.773,63.352 209.746,62.693 208.714 C 62.312 208.117,62.000 207.352,62.000 207.014 C 62.000 206.676,61.820 206.400,61.600 206.400 C 61.380 206.400,61.200 206.040,61.200 205.600 C 61.200 205.160,61.059 204.800,60.887 204.800 C 60.715 204.800,60.335 203.945,60.041 202.900 C 59.748 201.855,59.272 200.270,58.985 199.377 C 57.298 194.141,58.828 187.449,62.100 185.750 C 62.705 185.436,63.200 185.004,63.200 184.790 C 63.200 184.002,62.523 184.453,60.241 186.758 M241.200 197.123 C 241.200 197.380,243.938 198.824,244.800 199.021 C 244.910 199.046,245.507 199.277,246.126 199.534 C 247.385 200.055,250.504 200.162,250.967 199.700 C 251.132 199.535,251.432 199.378,251.633 199.350 C 251.835 199.322,252.045 199.264,252.100 199.219 C 252.155 199.175,252.512 199.079,252.894 199.006 C 254.157 198.763,255.984 197.818,256.181 197.305 C 256.440 196.630,256.270 196.662,254.600 197.600 C 253.817 198.040,252.832 198.400,252.411 198.400 C 251.991 198.400,251.536 198.580,251.400 198.800 C 251.264 199.020,250.094 199.200,248.800 199.200 C 247.506 199.200,246.336 199.020,246.200 198.800 C 246.064 198.580,245.609 198.400,245.189 198.400 C 244.768 198.400,243.783 198.040,243.000 197.600 C 241.418 196.711,241.200 196.654,241.200 197.123 " stroke="none" fill="#fcd43a" fill-rule="evenodd"></path><path id="path3" d="M161.400 0.400 C 161.720 0.918,163.080 0.918,163.400 0.400 C 163.545 0.166,163.130 0.000,162.400 0.000 C 161.670 0.000,161.255 0.166,161.400 0.400 M174.200 0.400 C 174.519 0.916,175.481 0.916,175.800 0.400 C 175.941 0.172,175.596 -0.000,175.000 -0.000 C 174.404 -0.000,174.059 0.172,174.200 0.400 M157.600 0.733 C 157.600 1.296,158.050 1.556,158.637 1.331 C 158.944 1.213,159.096 0.955,158.974 0.758 C 158.695 0.306,157.600 0.287,157.600 0.733 M178.000 0.733 C 178.000 1.296,178.450 1.556,179.037 1.331 C 179.344 1.213,179.496 0.955,179.374 0.758 C 179.095 0.306,178.000 0.287,178.000 0.733 M142.643 9.033 C 142.267 10.011,142.349 10.108,143.000 9.457 C 143.680 8.777,143.767 8.400,143.243 8.400 C 143.046 8.400,142.776 8.685,142.643 9.033 M207.200 28.600 C 207.200 28.930,207.380 29.200,207.600 29.200 C 207.820 29.200,208.000 28.930,208.000 28.600 C 208.000 28.270,207.820 28.000,207.600 28.000 C 207.380 28.000,207.200 28.270,207.200 28.600 M128.400 30.800 C 128.400 31.020,128.670 31.200,129.000 31.200 C 129.330 31.200,129.600 31.020,129.600 30.800 C 129.600 30.580,129.330 30.400,129.000 30.400 C 128.670 30.400,128.400 30.580,128.400 30.800 M208.000 31.800 C 208.000 32.130,208.180 32.400,208.400 32.400 C 208.620 32.400,208.800 32.130,208.800 31.800 C 208.800 31.470,208.620 31.200,208.400 31.200 C 208.180 31.200,208.000 31.470,208.000 31.800 M127.856 33.878 C 127.341 34.393,127.601 36.000,128.200 36.000 C 128.569 36.000,128.800 35.625,128.800 35.024 C 128.800 34.020,128.309 33.424,127.856 33.878 M208.800 60.024 C 208.800 76.471,208.935 84.764,209.200 84.600 C 209.460 84.440,209.600 75.729,209.600 59.776 C 209.600 43.659,209.462 35.200,209.200 35.200 C 208.938 35.200,208.800 43.741,208.800 60.024 M218.899 82.900 C 219.158 83.683,224.798 83.787,225.803 83.028 C 226.531 82.478,226.257 82.424,222.667 82.413 C 219.694 82.403,218.774 82.522,218.899 82.900 M213.200 83.600 C 213.200 83.820,213.470 84.000,213.800 84.000 C 214.130 84.000,214.400 83.820,214.400 83.600 C 214.400 83.380,214.130 83.200,213.800 83.200 C 213.470 83.200,213.200 83.380,213.200 83.600 M229.417 83.572 C 229.291 83.777,229.370 84.058,229.593 84.196 C 230.071 84.491,230.800 84.117,230.800 83.576 C 230.800 83.090,229.717 83.087,229.417 83.572 M210.200 84.400 C 210.064 84.620,210.334 84.800,210.800 84.800 C 211.266 84.800,211.536 84.620,211.400 84.400 C 211.264 84.180,210.994 84.000,210.800 84.000 C 210.606 84.000,210.336 84.180,210.200 84.400 M270.099 100.900 C 270.283 101.454,277.590 101.826,279.911 101.400 C 282.720 100.885,280.506 100.400,275.343 100.400 C 271.194 100.400,269.972 100.516,270.099 100.900 M265.826 101.558 C 265.558 101.991,266.721 102.496,267.243 102.174 C 267.446 102.048,267.509 101.777,267.383 101.572 C 267.090 101.098,266.116 101.089,265.826 101.558 M283.600 101.833 C 283.600 102.540,284.461 102.417,284.708 101.675 C 284.795 101.414,284.582 101.200,284.233 101.200 C 283.885 101.200,283.600 101.485,283.600 101.833 M263.260 102.380 C 263.432 102.896,263.981 102.988,264.030 102.510 C 264.047 102.351,263.844 102.148,263.580 102.060 C 263.316 101.972,263.172 102.116,263.260 102.380 M287.000 102.400 C 286.864 102.620,287.134 102.800,287.600 102.800 C 288.066 102.800,288.336 102.620,288.200 102.400 C 288.064 102.180,287.794 102.000,287.600 102.000 C 287.406 102.000,287.136 102.180,287.000 102.400 M321.600 123.600 C 321.600 123.820,322.050 124.000,322.600 124.000 C 323.150 124.000,323.600 123.820,323.600 123.600 C 323.600 123.380,323.150 123.200,322.600 123.200 C 322.050 123.200,321.600 123.380,321.600 123.600 M334.200 123.600 C 334.056 123.833,334.463 124.000,335.176 124.000 C 335.849 124.000,336.400 123.820,336.400 123.600 C 336.400 123.380,335.961 123.200,335.424 123.200 C 334.887 123.200,334.336 123.380,334.200 123.600 M338.800 124.200 C 338.384 124.701,338.440 124.800,339.138 124.800 C 339.718 124.800,339.904 124.615,339.745 124.200 C 339.618 123.870,339.466 123.600,339.406 123.600 C 339.347 123.600,339.074 123.870,338.800 124.200 M318.400 124.400 C 318.400 124.620,318.670 124.800,319.000 124.800 C 319.330 124.800,319.600 124.620,319.600 124.400 C 319.600 124.180,319.330 124.000,319.000 124.000 C 318.670 124.000,318.400 124.180,318.400 124.400 M313.200 126.000 C 312.715 126.314,312.772 126.389,313.500 126.394 C 313.995 126.397,314.400 126.220,314.400 126.000 C 314.400 125.499,313.976 125.499,313.200 126.000 M368.200 154.000 C 367.874 154.528,368.352 155.277,368.828 154.983 C 369.313 154.683,369.310 153.600,368.824 153.600 C 368.617 153.600,368.336 153.780,368.200 154.000 M65.200 155.600 C 65.200 155.820,65.785 156.019,66.500 156.042 C 72.191 156.228,74.400 156.104,74.400 155.600 C 74.400 155.357,72.600 155.200,69.800 155.200 C 67.000 155.200,65.200 155.357,65.200 155.600 M60.800 156.400 C 60.800 156.620,61.070 156.800,61.400 156.800 C 61.730 156.800,62.000 156.620,62.000 156.400 C 62.000 156.180,61.730 156.000,61.400 156.000 C 61.070 156.000,60.800 156.180,60.800 156.400 M77.200 156.400 C 77.200 156.620,77.560 156.800,78.000 156.800 C 78.440 156.800,78.800 156.620,78.800 156.400 C 78.800 156.180,78.440 156.000,78.000 156.000 C 77.560 156.000,77.200 156.180,77.200 156.400 M58.000 157.200 C 58.000 157.420,58.270 157.600,58.600 157.600 C 58.930 157.600,59.200 157.420,59.200 157.200 C 59.200 156.980,58.930 156.800,58.600 156.800 C 58.270 156.800,58.000 156.980,58.000 157.200 M369.300 157.496 C 368.704 157.699,368.627 159.846,369.203 160.202 C 369.721 160.522,370.096 159.540,369.930 158.297 C 369.854 157.732,369.591 157.397,369.300 157.496 M106.608 177.044 C 107.726 178.162,107.841 178.191,108.137 177.420 C 108.293 177.012,108.167 176.914,107.710 177.090 C 107.257 177.264,107.127 177.167,107.280 176.769 C 107.427 176.386,107.197 176.182,106.575 176.144 L 105.651 176.088 106.608 177.044 M31.600 181.600 C 31.600 181.820,31.870 182.000,32.200 182.000 C 32.530 182.000,32.800 181.820,32.800 181.600 C 32.800 181.380,32.530 181.200,32.200 181.200 C 31.870 181.200,31.600 181.380,31.600 181.600 M30.800 184.000 C 30.800 184.220,31.070 184.400,31.400 184.400 C 31.730 184.400,32.000 184.220,32.000 184.000 C 32.000 183.780,31.730 183.600,31.400 183.600 C 31.070 183.600,30.800 183.780,30.800 184.000 M30.000 188.767 C 30.000 189.620,30.193 190.000,30.627 190.000 C 31.071 190.000,31.216 189.689,31.127 188.931 C 30.942 187.374,30.000 187.236,30.000 188.767 M122.400 194.971 C 122.400 195.324,123.673 196.400,124.090 196.400 C 124.328 196.400,124.107 196.040,123.600 195.600 C 122.674 194.797,122.400 194.653,122.400 194.971 M30.000 197.787 C 30.000 199.923,30.105 200.335,30.600 200.145 C 31.039 199.976,31.200 199.284,31.200 197.557 C 31.200 195.729,31.065 195.200,30.600 195.200 C 30.129 195.200,30.000 195.754,30.000 197.787 M30.800 203.233 C 30.800 204.208,31.735 204.070,31.929 203.067 C 32.006 202.672,31.802 202.400,31.429 202.400 C 31.058 202.400,30.800 202.742,30.800 203.233 M31.856 206.278 C 31.405 206.728,31.581 207.200,32.200 207.200 C 32.530 207.200,32.800 207.031,32.800 206.824 C 32.800 206.319,32.175 205.958,31.856 206.278 M32.588 208.820 C 32.207 209.435,32.728 209.832,33.242 209.318 C 33.529 209.031,33.536 208.807,33.262 208.639 C 33.039 208.500,32.735 208.582,32.588 208.820 M33.200 211.400 C 33.200 211.767,33.394 212.002,33.630 211.923 C 33.867 211.845,34.060 211.609,34.060 211.400 C 34.060 211.191,33.867 210.956,33.630 210.877 C 33.394 210.798,33.200 211.033,33.200 211.400 M368.880 264.028 C 368.957 265.643,369.185 266.598,369.520 266.708 C 369.918 266.840,370.012 266.291,369.920 264.372 C 369.843 262.757,369.615 261.802,369.280 261.692 C 368.882 261.560,368.788 262.109,368.880 264.028 M368.179 271.310 C 367.861 272.139,368.087 273.220,368.600 273.321 C 369.158 273.431,369.360 271.600,368.847 271.087 C 368.553 270.793,368.352 270.860,368.179 271.310 M367.354 276.175 C 367.060 276.942,367.427 278.000,367.987 278.000 C 368.519 278.000,368.527 276.126,367.997 275.798 C 367.776 275.661,367.486 275.831,367.354 276.175 M366.472 281.269 C 366.661 282.549,367.600 282.686,367.600 281.433 C 367.600 280.761,367.381 280.400,366.972 280.400 C 366.555 280.400,366.387 280.692,366.472 281.269 M365.762 285.355 C 365.501 286.035,365.851 286.800,366.424 286.800 C 366.928 286.800,366.906 285.313,366.397 284.998 C 366.176 284.861,365.890 285.022,365.762 285.355 M365.000 290.000 C 364.708 290.472,365.087 291.200,365.624 291.200 C 365.831 291.200,366.000 290.840,366.000 290.400 C 366.000 289.556,365.418 289.324,365.000 290.000 M364.278 293.856 C 363.958 294.175,364.319 294.800,364.824 294.800 C 365.031 294.800,365.200 294.530,365.200 294.200 C 365.200 293.581,364.728 293.405,364.278 293.856 M363.494 297.039 C 363.174 297.360,363.593 298.400,364.043 298.400 C 364.239 298.400,364.400 298.040,364.400 297.600 C 364.400 296.820,363.976 296.558,363.494 297.039 M362.800 301.224 C 362.800 301.677,362.980 301.936,363.200 301.800 C 363.420 301.664,363.600 301.293,363.600 300.976 C 363.600 300.659,363.420 300.400,363.200 300.400 C 362.980 300.400,362.800 300.771,362.800 301.224 M362.000 304.400 C 362.000 304.840,362.180 305.200,362.400 305.200 C 362.620 305.200,362.800 304.840,362.800 304.400 C 362.800 303.960,362.620 303.600,362.400 303.600 C 362.180 303.600,362.000 303.960,362.000 304.400 M361.200 308.200 C 361.200 308.530,361.380 308.800,361.600 308.800 C 361.820 308.800,362.000 308.530,362.000 308.200 C 362.000 307.870,361.820 307.600,361.600 307.600 C 361.380 307.600,361.200 307.870,361.200 308.200 M360.400 311.600 C 360.400 312.040,360.580 312.400,360.800 312.400 C 361.020 312.400,361.200 312.040,361.200 311.600 C 361.200 311.160,361.020 310.800,360.800 310.800 C 360.580 310.800,360.400 311.160,360.400 311.600 M359.600 314.600 C 359.600 314.930,359.780 315.200,360.000 315.200 C 360.220 315.200,360.400 314.930,360.400 314.600 C 360.400 314.270,360.220 314.000,360.000 314.000 C 359.780 314.000,359.600 314.270,359.600 314.600 M358.800 317.800 C 358.800 318.130,358.980 318.400,359.200 318.400 C 359.420 318.400,359.600 318.130,359.600 317.800 C 359.600 317.470,359.420 317.200,359.200 317.200 C 358.980 317.200,358.800 317.470,358.800 317.800 M357.200 323.767 C 357.200 324.115,357.485 324.400,357.833 324.400 C 358.540 324.400,358.417 323.539,357.675 323.292 C 357.414 323.205,357.200 323.418,357.200 323.767 M356.400 326.677 C 356.400 327.138,356.652 327.611,356.961 327.730 C 357.630 327.986,357.572 327.012,356.876 326.316 C 356.508 325.948,356.400 326.030,356.400 326.677 M355.662 329.775 C 355.738 330.142,355.980 330.433,356.200 330.421 C 356.794 330.390,356.685 329.495,356.062 329.287 C 355.725 329.175,355.575 329.358,355.662 329.775 M354.800 332.967 C 354.800 333.315,355.085 333.600,355.433 333.600 C 356.140 333.600,356.017 332.739,355.275 332.492 C 355.014 332.405,354.800 332.618,354.800 332.967 M354.077 335.630 C 354.156 335.867,354.391 336.060,354.600 336.060 C 354.809 336.060,355.045 335.867,355.123 335.630 C 355.202 335.394,354.967 335.200,354.600 335.200 C 354.233 335.200,353.998 335.394,354.077 335.630 M353.260 338.380 C 353.348 338.644,353.550 338.847,353.710 338.830 C 354.188 338.781,354.096 338.232,353.580 338.060 C 353.316 337.972,353.172 338.116,353.260 338.380 M352.656 340.678 C 352.205 341.128,352.381 341.600,353.000 341.600 C 353.330 341.600,353.600 341.431,353.600 341.224 C 353.600 340.719,352.975 340.358,352.656 340.678 M350.892 346.475 C 351.139 347.217,352.000 347.340,352.000 346.633 C 352.000 346.285,351.715 346.000,351.367 346.000 C 351.018 346.000,350.805 346.214,350.892 346.475 M349.200 351.957 C 349.200 352.154,349.470 352.418,349.800 352.545 C 350.165 352.685,350.400 352.545,350.400 352.187 C 350.400 351.864,350.130 351.600,349.800 351.600 C 349.470 351.600,349.200 351.761,349.200 351.957 M347.806 357.190 C 347.483 357.713,348.404 358.156,348.862 357.698 C 349.118 357.442,349.041 357.224,348.640 357.071 C 348.302 356.941,347.927 356.995,347.806 357.190 M346.278 362.656 C 345.958 362.975,346.319 363.600,346.824 363.600 C 347.031 363.600,347.200 363.330,347.200 363.000 C 347.200 362.381,346.728 362.205,346.278 362.656 M345.600 365.800 C 345.600 366.130,345.780 366.400,346.000 366.400 C 346.220 366.400,346.400 366.130,346.400 365.800 C 346.400 365.470,346.220 365.200,346.000 365.200 C 345.780 365.200,345.600 365.470,345.600 365.800 M343.200 373.800 C 343.200 374.130,343.380 374.400,343.600 374.400 C 343.820 374.400,344.000 374.130,344.000 373.800 C 344.000 373.470,343.820 373.200,343.600 373.200 C 343.380 373.200,343.200 373.470,343.200 373.800 M342.400 376.200 C 342.400 376.530,342.580 376.800,342.800 376.800 C 343.020 376.800,343.200 376.530,343.200 376.200 C 343.200 375.870,343.020 375.600,342.800 375.600 C 342.580 375.600,342.400 375.870,342.400 376.200 M341.600 378.600 C 341.600 378.930,341.780 379.200,342.000 379.200 C 342.220 379.200,342.400 378.930,342.400 378.600 C 342.400 378.270,342.220 378.000,342.000 378.000 C 341.780 378.000,341.600 378.270,341.600 378.600 M340.000 383.757 C 340.000 384.064,340.250 384.410,340.555 384.527 C 340.944 384.677,341.049 384.510,340.908 383.970 C 340.676 383.084,340.000 382.926,340.000 383.757 M339.200 386.200 C 339.200 386.530,339.380 386.800,339.600 386.800 C 339.820 386.800,340.000 386.530,340.000 386.200 C 340.000 385.870,339.820 385.600,339.600 385.600 C 339.380 385.600,339.200 385.870,339.200 386.200 M338.594 388.410 C 338.431 388.674,338.546 389.044,338.849 389.232 C 339.514 389.645,339.873 388.913,339.290 388.330 C 339.024 388.064,338.791 388.090,338.594 388.410 M147.800 399.600 C 147.659 399.828,148.004 400.000,148.600 400.000 C 149.196 400.000,149.541 399.828,149.400 399.600 C 149.264 399.380,148.904 399.200,148.600 399.200 C 148.296 399.200,147.936 399.380,147.800 399.600 M327.400 399.600 C 327.259 399.828,327.604 400.000,328.200 400.000 C 328.796 400.000,329.141 399.828,329.000 399.600 C 328.864 399.380,328.504 399.200,328.200 399.200 C 327.896 399.200,327.536 399.380,327.400 399.600 " stroke="none" fill="#d1a704" fill-rule="evenodd"></path><path id="path4" d="" stroke="none" fill="#100dc34" fill-rule="evenodd"></path></g></svg>